# xmcd
#
# Track frame offsets: 
#        150
#        41762
#        71325
#        101190
#        120172
#        143535
#        176912
#
# Disc length: 2648 seconds
#
# Revision: 6
# Processed by: cddbd v1.5.2PL0 Copyright (c) Steve Scherf et al.
# Submitted via: ExactAudioCopy v1.3
#
DISCID=5b0a5607
DTITLE=The Super Super Blues Band - The Super Super Blues Band
DYEAR=1968
DGENRE=Blues
TTITLE0=Long Distance Call
TTITLE1=Ooh Baby - Wrecking My Love Life
TTITLE2=Sweet Little Angel
TTITLE3=Spoonful
TTITLE4=Diddley Daddy
TTITLE5=The Red Rooster
TTITLE6=Goin' Down Slow
EXTD=1992 Chess Records, Originally Checker LP 3010
EXTT0=
EXTT1=
EXTT2=
EXTT3=
EXTT4=
EXTT5=
EXTT6=
PLAYORDER=
